<svg width="27" height="19" viewBox="0 0 27 19" fill="none" xmlns="http://www.w3.org/2000/svg">
<path d="M26.1562 7.6457V7.62461C26.1579 7.59953 26.1544 7.57438 26.1457 7.55078V7.51914C26.1457 7.49805 26.1352 7.47695 26.1352 7.45586V7.43477L26.1141 7.35039H26.1035L24.627 3.68008C24.5093 3.35886 24.2951 3.08196 24.0137 2.88743C23.7323 2.69291 23.3975 2.59032 23.0555 2.59375H19.4062V1.75C19.4062 1.52622 19.3174 1.31161 19.1591 1.15338C19.0009 0.995145 18.7863 0.90625 18.5625 0.90625H2.53125C2.0837 0.90625 1.65447 1.08404 1.33801 1.40051C1.02154 1.71697 0.84375 2.1462 0.84375 2.59375V14.4063C0.84375 14.8538 1.02154 15.283 1.33801 15.5995C1.65447 15.916 2.0837 16.0938 2.53125 16.0938H3.90234C4.08822 16.8197 4.51044 17.4632 5.10242 17.9227C5.6944 18.3822 6.42248 18.6316 7.17188 18.6316C7.92127 18.6316 8.64935 18.3822 9.24133 17.9227C9.83331 17.4632 10.2555 16.8197 10.4414 16.0938H16.5586C16.7445 16.8197 17.1667 17.4632 17.7587 17.9227C18.3507 18.3822 19.0787 18.6316 19.8281 18.6316C20.5775 18.6316 21.3056 18.3822 21.8976 17.9227C22.4896 17.4632 22.9118 16.8197 23.0977 16.0938H24.4688C24.9163 16.0938 25.3455 15.916 25.662 15.5995C25.9785 15.283 26.1562 14.8538 26.1562 14.4063V7.65625V7.6457ZM19.4062 4.28125H23.0555L24.068 6.8125H19.4062V4.28125ZM2.53125 2.59375H17.7188V9.34375H2.53125V2.59375ZM7.17188 16.9375C6.83812 16.9375 6.51186 16.8385 6.23435 16.6531C5.95684 16.4677 5.74055 16.2041 5.61283 15.8958C5.48511 15.5874 5.45169 15.2481 5.5168 14.9208C5.58191 14.5934 5.74263 14.2928 5.97863 14.0568C6.21463 13.8208 6.51532 13.66 6.84266 13.5949C7.17 13.5298 7.5093 13.5632 7.81765 13.691C8.126 13.8187 8.38955 14.035 8.57498 14.3125C8.7604 14.59 8.85938 14.9162 8.85938 15.25C8.85938 15.6976 8.68158 16.1268 8.36512 16.4432C8.04865 16.7597 7.61943 16.9375 7.17188 16.9375ZM19.8281 16.9375C19.4944 16.9375 19.1681 16.8385 18.8906 16.6531C18.6131 16.4677 18.3968 16.2041 18.2691 15.8958C18.1414 15.5874 18.1079 15.2481 18.173 14.9208C18.2382 14.5934 18.3989 14.2928 18.6349 14.0568C18.8709 13.8208 19.1716 13.66 19.4989 13.5949C19.8263 13.5298 20.1656 13.5632 20.4739 13.691C20.7823 13.8187 21.0458 14.035 21.2312 14.3125C21.4167 14.59 21.5156 14.9162 21.5156 15.25C21.5156 15.6976 21.3378 16.1268 21.0214 16.4432C20.7049 16.7597 20.2757 16.9375 19.8281 16.9375Z" fill="#4479F0"/>
</svg>
