<svg width="13" height="17" viewBox="0 0 13 17" fill="none" xmlns="http://www.w3.org/2000/svg">
<path d="M11.5046 6.84084V2.29318C11.5046 1.02863 10.4322 0 9.11373 0H3.88588C2.56745 0 1.49498 1.02863 1.49498 2.29318V6.84084C0.649369 6.96265 0 7.66051 0 8.50569V15.3144C0 16.2455 0.787085 17 1.75741 17H11.2426C12.2127 17 13 16.2456 13 15.3144V8.50569C12.9996 7.66051 12.3502 6.96265 11.5046 6.84084ZM3.88588 1.65109H9.11373C9.48289 1.65109 9.78319 1.93911 9.78319 2.29318V6.82011H3.21643V2.29318C3.21643 1.93911 3.51673 1.65109 3.88588 1.65109ZM6.49981 13.7527C5.54785 13.7527 4.77645 13.0128 4.77645 12.0997C4.77645 11.1867 5.54785 10.4466 6.49981 10.4466C7.45177 10.4466 8.22317 11.1867 8.22317 12.0997C8.22317 13.0128 7.45177 13.7527 6.49981 13.7527Z" fill="#FF5E00"/>
</svg>
